<svg xmlns="http://www.w3.org/2000/svg" width="15" height="18" viewBox="0 0 15 18">
  <path id="Union_95" data-name="Union 95" d="M3.484,18a2.261,2.261,0,0,1-1.618-.684,2.412,2.412,0,0,1-.66-1.672V5.515A1.725,1.725,0,0,1,.015,3.658a1.752,1.752,0,0,1,1.745-1.5H3.8V1.776A1.756,1.756,0,0,1,4.326.516,1.812,1.812,0,0,1,5.6,0H9.4a1.814,1.814,0,0,1,1.276.516A1.759,1.759,0,0,1,11.2,1.776v.383H13.24a1.753,1.753,0,0,1,1.746,1.5,1.726,1.726,0,0,1-1.191,1.857V15.644a2.412,2.412,0,0,1-.661,1.673A2.261,2.261,0,0,1,11.516,18ZM2.331,15.644A1.2,1.2,0,0,0,3.484,16.9h8.032a1.194,1.194,0,0,0,1.152-1.256V5.585H2.331ZM1.134,3.872a.62.62,0,0,0,.625.612H13.24a.612.612,0,1,0,0-1.224H1.76A.62.62,0,0,0,1.134,3.872ZM5.122,1.295a.663.663,0,0,0-.2.479v.385h5.158V1.776a.66.66,0,0,0-.2-.481A.68.68,0,0,0,9.4,1.1H5.6A.68.68,0,0,0,5.122,1.295Zm4.32,13.527V6.974a.563.563,0,0,1,1.126,0v7.847a.563.563,0,0,1-1.126,0Zm-2.5,0V6.974a.563.563,0,0,1,1.126,0v7.847a.563.563,0,0,1-1.126,0Zm-2.5,0V6.974a.563.563,0,0,1,1.125,0v7.847a.563.563,0,0,1-1.125,0Z" fill="#E50019"/>
</svg>
